# xmcd
#
# Track frame offsets: 
#        150
#        24705
#        39979
#        60635
#        75496
#        93666
#        107681
#        127643
#        146807
#        180593
#        199496
#        229825
#        243570
#
# Disc length: 3404 seconds
#
# Revision: 9
# Processed by: cddbd v1.5.2PL0 Copyright (c) Steve Scherf et al.
# Submitted via: ExactAudioCopy v0.99pb4
#
DISCID=ad0d4a0d
DTITLE=Tom Russell - Modern Art
DYEAR=2003
DGENRE=Country
TTITLE0=The Kid from Spavinaw
TTITLE1=The Ballad of Sally Rose
TTITLE2=The Boy Who Cried Wolf
TTITLE3=Muhammad Ali
TTITLE4=American Hotel
TTITLE5=Racehorse Haynes
TTITLE6=The Dutchman
TTITLE7=Modern Art
TTITLE8=Isaac Lewis
TTITLE9=Bus Station
TTITLE10=Crucifix in a Death Hand/Carmelita
TTITLE11=Tijuana Bible
TTITLE12=Gulf Coast Highway
EXTD=
EXTT0=
EXTT1=
EXTT2=
EXTT3=
EXTT4=
EXTT5=
EXTT6=
EXTT7=
EXTT8=
EXTT9=
EXTT10=
EXTT11=
EXTT12=
PLAYORDER=
